<svg 
 xmlns="http://www.w3.org/2000/svg"
 xmlns:xlink="http://www.w3.org/1999/xlink"
 width="32px" height="31px">
<defs>
<filter id="Filter_0">
    <feFlood flood-color="rgb(44, 149, 152)" flood-opacity="1" result="floodOut" />
    <feComposite operator="atop" in="floodOut" in2="SourceGraphic" result="compOut" />
    <feBlend mode="normal" in="compOut" in2="SourceGraphic" />
</filter>

</defs>
<g filter="url(#Filter_0)">
<path fill-rule="evenodd"  fill="rgb(27, 27, 27)"
 d="M31.861,9.278 L27.103,23.331 C26.962,23.725 26.588,23.988 26.169,23.988 L12.670,23.988 C12.224,23.988 11.834,23.692 11.714,23.263 L6.187,2.953 C5.905,1.978 5.492,1.978 5.356,1.978 L1.073,1.978 C0.524,1.978 0.080,1.534 0.080,0.985 C0.080,0.436 0.524,-0.008 1.073,-0.008 L5.356,-0.008 C5.970,-0.008 7.468,0.227 8.097,2.409 L9.704,7.949 L30.927,7.949 C31.250,7.949 31.553,8.106 31.739,8.371 C31.925,8.634 31.970,8.973 31.861,9.278 ZM10.262,9.935 L13.423,22.001 L25.470,22.001 L29.515,9.935 L10.262,9.935 ZM14.500,26.000 C15.881,26.000 17.000,27.119 17.000,28.500 C17.000,29.880 15.881,31.000 14.500,31.000 C13.119,31.000 12.000,29.880 12.000,28.500 C12.000,27.119 13.119,26.000 14.500,26.000 ZM23.500,26.000 C24.880,26.000 26.000,27.119 26.000,28.500 C26.000,29.880 24.880,31.000 23.500,31.000 C22.119,31.000 21.000,29.880 21.000,28.500 C21.000,27.119 22.119,26.000 23.500,26.000 Z"/>
</g>
</svg>