<svg 
 xmlns="http://www.w3.org/2000/svg"
 xmlns:xlink="http://www.w3.org/1999/xlink"
 width="10px" height="29px">
<path fill-rule="evenodd"  fill="rgb(64, 206, 210)"
 d="M8.503,2.764 C8.521,2.781 8.533,2.797 8.542,2.810 C8.411,3.519 7.613,7.418 7.455,8.139 C7.410,8.186 7.277,8.288 7.021,8.367 C6.748,8.452 5.935,8.680 4.791,8.993 L3.900,9.236 L3.741,10.145 C3.624,10.821 3.425,12.348 3.425,14.975 C3.425,17.614 3.622,19.136 3.739,19.810 L3.899,20.718 L4.790,20.961 C5.653,21.196 6.693,21.484 7.022,21.586 C7.287,21.668 7.413,21.779 7.445,21.812 C7.450,21.817 7.454,21.821 7.457,21.825 C7.604,22.465 8.411,26.457 8.544,27.171 C8.510,27.219 8.414,27.302 8.224,27.336 C6.668,27.587 4.799,27.605 4.301,27.377 C2.462,25.360 1.451,20.962 1.451,14.976 C1.453,8.990 2.461,4.596 4.294,2.586 C4.788,2.353 6.664,2.364 8.207,2.612 C8.319,2.633 8.427,2.688 8.503,2.764 M9.500,1.769 C9.228,1.497 8.856,1.291 8.432,1.214 C8.390,1.207 4.248,0.510 3.282,1.539 C0.568,4.429 -0.002,10.442 -0.003,14.976 C-0.003,19.511 0.566,25.525 3.291,28.426 L3.314,28.449 C4.299,29.433 8.421,28.777 8.461,28.770 C9.565,28.575 10.114,27.696 9.990,26.992 C9.915,26.564 8.992,21.983 8.861,21.439 C8.804,21.203 8.669,20.979 8.473,20.784 C8.222,20.533 7.870,20.328 7.454,20.199 C7.050,20.073 5.790,19.728 5.172,19.559 C5.069,18.971 4.879,17.536 4.880,14.976 C4.880,12.433 5.071,10.986 5.174,10.394 C5.791,10.226 7.051,9.880 7.453,9.754 C8.215,9.520 8.742,9.052 8.864,8.503 C8.980,7.987 9.890,3.434 9.962,2.986 C10.030,2.563 9.845,2.113 9.500,1.769 L9.500,1.769 Z"/>
</svg>