<svg 
 xmlns="http://www.w3.org/2000/svg"
 xmlns:xlink="http://www.w3.org/1999/xlink"
 width="14px" height="19px">
<path fill-rule="evenodd"  fill="rgb(64, 206, 210)"
 d="M8.173,18.519 C8.162,18.531 7.757,18.993 7.254,18.993 C7.252,18.993 7.210,18.993 7.209,18.993 C6.706,18.993 6.298,18.531 6.288,18.519 C3.762,15.562 0.006,11.354 0.006,7.239 C0.006,3.310 3.247,-0.008 7.073,-0.008 C11.478,-0.008 14.006,3.310 14.006,7.239 C14.006,11.171 10.543,15.745 8.173,18.519 ZM7.073,1.180 C3.875,1.180 1.173,3.955 1.173,7.239 C1.173,10.739 4.453,14.569 6.848,17.366 L7.154,17.723 C7.175,17.744 7.204,17.767 7.231,17.786 C7.257,17.767 7.287,17.744 7.307,17.723 C10.978,13.423 12.839,9.896 12.839,7.239 C12.839,4.223 11.056,1.180 7.073,1.180 ZM7.027,10.713 C5.094,10.713 3.527,9.118 3.527,7.151 C3.527,5.183 5.094,3.588 7.027,3.588 C8.960,3.588 10.527,5.183 10.527,7.151 C10.527,9.118 8.960,10.713 7.027,10.713 ZM7.000,4.750 C5.713,4.750 4.666,5.815 4.666,7.125 C4.666,8.435 5.740,9.526 7.027,9.526 C8.314,9.526 9.333,8.435 9.333,7.125 C9.333,5.815 8.287,4.750 7.000,4.750 Z"/>
</svg>