<svg 
 xmlns="http://www.w3.org/2000/svg"
 xmlns:xlink="http://www.w3.org/1999/xlink"
 width="18px" height="18px">
<path fill-rule="evenodd"  fill="rgb(64, 206, 210)"
 d="M17.795,17.799 C17.538,18.058 17.121,18.058 16.864,17.799 L13.615,14.497 C12.171,15.758 10.289,16.528 8.226,16.528 C3.683,16.528 -0.000,12.828 -0.000,8.264 C-0.000,3.699 3.683,-0.000 8.226,-0.000 C12.769,-0.000 16.451,3.699 16.451,8.264 C16.451,10.278 15.732,12.123 14.540,13.557 L17.795,16.864 C18.052,17.123 18.052,17.541 17.795,17.799 ZM15.146,8.264 C15.146,4.424 12.048,1.311 8.226,1.311 C4.403,1.311 1.305,4.424 1.305,8.264 C1.305,12.103 4.403,15.216 8.226,15.216 C12.048,15.216 15.146,12.103 15.146,8.264 Z"/>
</svg>